<mxfile host="app.diagrams.net" modified="2023-06-01T12:27:28.590Z" agent="Mozilla/5.0 (X11; Linux x86_64; rv:109.0) Gecko/20100101 Firefox/113.0" version="21.3.6" etag="GZaqvpWNyMoY7khdKLo_" type="github">
  <diagram name="Page-1" id="04XNIjbuiKYvFU9A5O9u">
    <mxGraphModel>
      <root>
        <mxCell id="0" />
        <mxCell id="1" parent="0" />
      </root>
    </mxGraphModel>
  </diagram>
</mxfile>
